<svg xmlns="http://www.w3.org/2000/svg" viewBox="0 0 80 80"><style>.st0{fill:#2d3c49}.st1{fill:#fff}.st2{opacity:0;fill:#e5e5e5}.st3{fill:#02b3e4}.st4{opacity:0;fill:#fff}</style><g id="_x38_0-mark-white"><path id="mark_28_" class="st3" d="M33.352 20l-13.347 7.656.001 17.635C19.981 53.39 26.527 59.975 34.626 60a14.598 14.598 0 0 0 7.355-1.949l10.812-6.212a13.332 13.332 0 0 0 7.201-11.801l.001-18.417-2.646-1.548-11.342 6.126.001.001-.004 19.172c-.002.816-.061 1.63-.225 2.42a11.925 11.925 0 0 1-.959 2.801c-.448.003-2.859-.871-4.186-1.768a10.727 10.727 0 0 1-3.852-4.707 10.51 10.51 0 0 1-.614-2c-.142-.703-.173-1.428-.171-2.153l.009-18.416L33.352 20zm6.406 36.22c-.724.304-1.733.703-2.502.858-.791.159-1.52.239-2.336.236a11.934 11.934 0 0 1-6.701-2.068c-1.651-1.16-2.503-2.165-3.234-3.254a11.881 11.881 0 0 1-1.791-4.292c-.159-.791-.192-1.606-.19-2.422l.003-16.096 9.997-6.109v16.878h-.001c-.02 6.413 4.703 11.767 10.733 13.06-.236.282-.407.554-.668.813-1.121 1.138-2.063 1.867-3.31 2.396zm17.073-14.008a10.662 10.662 0 0 1-.626 1.997 10.712 10.712 0 0 1-.988 1.808c-.384.564-1.577 2.054-3.224 2.995-1.647.941-3.082 1.212-4.021 1.391.606-1.6 1.027-3.208 1.033-5.02V27.746l8-4.594.003 16.878c-.003.725-.031 1.48-.177 2.182z"/></g></svg>